<svg enable-background="new 0 0 32 32" height="512" viewBox="0 0 32 32" width="512" xmlns="http://www.w3.org/2000/svg"><g id="Layer_26"><path d="m16 2c-5.438 0-9.846 4.408-9.846 9.846s4.408 9.846 9.846 9.846 9.846-4.408 9.846-9.846-4.408-9.846-9.846-9.846zm4.329 9.044-1.799 1.754.425 2.476c.071.412-.362.726-.731.531l-2.224-1.169-2.224 1.169c-.37.194-.802-.12-.731-.531l.425-2.476-1.799-1.754c-.299-.292-.134-.8.279-.86l2.486-.361 1.112-2.253c.185-.375.719-.375.904 0l1.112 2.253 2.486.361c.413.06.578.569.279.86z"/><path d="m16 23.191c-2.142 0-4.139-.607-5.85-1.643v7.922c0 .42.47.67.82.44l4.74-3.11c.18-.12.4-.12.58 0l4.74 3.11c.35.23.82-.02.82-.44v-7.922c-1.711 1.036-3.708 1.643-5.85 1.643z"/></g></svg>