<?xml version="1.0"?>
<svg xmlns="http://www.w3.org/2000/svg" viewBox="0 0 100 100" width="512" height="512"><g id="Layer_2" data-name="Layer 2"><path d="M57.66,24.53l-5.42-11a2.5,2.5,0,0,0-4.48,0l-5.42,11L30.22,26.29a2.5,2.5,0,0,0-1.38,4.27L37.6,39.1,35.53,51.17a2.5,2.5,0,0,0,3.63,2.64L50,48.11l10.84,5.7a2.48,2.48,0,0,0,1.16.28,2.52,2.52,0,0,0,1.47-.47,2.49,2.49,0,0,0,1-2.45L62.4,39.1l8.76-8.54a2.5,2.5,0,0,0-1.38-4.27ZM58,36.44a2.51,2.51,0,0,0-.71,2.21L58.68,47l-7.52-4a2.5,2.5,0,0,0-2.32,0l-7.52,4,1.43-8.37A2.51,2.51,0,0,0,42,36.44L36,30.51l8.41-1.22a2.5,2.5,0,0,0,1.88-1.37L50,20.31l3.76,7.61a2.5,2.5,0,0,0,1.88,1.37l8.41,1.22ZM50,2.5A33.73,33.73,0,0,0,27.5,61.38V92.5a2.49,2.49,0,0,0,1.29,2.19,2.54,2.54,0,0,0,2.54-.07L50,83,68.67,94.62A2.56,2.56,0,0,0,70,95a2.49,2.49,0,0,0,2.5-2.5V61.38A33.73,33.73,0,0,0,50,2.5ZM67.5,88,51.33,77.88a2.5,2.5,0,0,0-2.66,0L32.5,88V65.1a33.7,33.7,0,0,0,35,0ZM50,65A28.75,28.75,0,1,1,78.75,36.25,28.79,28.79,0,0,1,50,65Z"/></g></svg>
