<svg clip-rule="evenodd" fill-rule="evenodd" height="512" stroke-linejoin="round" stroke-miterlimit="2" viewBox="0 0 64 64" width="512" xmlns="http://www.w3.org/2000/svg"><g transform="translate(-2622)"><g id="Live-chat-" transform="translate(2280 -399)"><g><path d="m367 426.324c0-8.486 7.643-15.324 17-15.324s17 6.838 17 15.324c0 4.18-1.896 8.158-5.202 11.031-.774.661-1.158 1.671-1.019 2.68.135 1.021.348 2.585.524 3.874l-3.754-2.552c-.737-.5-1.659-.647-2.516-.4-1.624.458-3.323.69-5.033.69-9.357 0-17-6.838-17-15.323zm25-2.324c-1.656 0-3 1.344-3 3s1.344 3 3 3 3-1.344 3-3-1.344-3-3-3zm-8 0c-1.656 0-3 1.344-3 3s1.344 3 3 3 3-1.344 3-3-1.344-3-3-3zm-8 0c-1.656 0-3 1.344-3 3s1.344 3 3 3 3-1.344 3-3-1.344-3-3-3z"/></g><g><path d="m366.598 419.367c-1.157-.24-2.361-.367-3.598-.367-8.805 0-16 6.432-16 14.417 0 3.915 1.769 7.641 4.853 10.341.77.661 1.151 1.668 1.013 2.666-.123.938-.31 2.317-.469 3.485l3.4-2.311c.735-.499 1.654-.647 2.504-.404 1.521.425 3.105.64 4.699.64 5.264 0 9.944-2.295 12.866-5.852-6.43-2.786-10.866-8.767-10.866-15.658 0-2.471.57-4.825 1.598-6.957zm-1.598 19.633h-9c-.552 0-1 .448-1 1s.448 1 1 1h9c.552 0 1-.448 1-1s-.448-1-1-1zm-2-6h-7c-.552 0-1 .448-1 1s.448 1 1 1h7c.552 0 1-.448 1-1s-.448-1-1-1zm-1-6h-6c-.552 0-1 .448-1 1s.448 1 1 1h6c.552 0 1-.448 1-1s-.448-1-1-1z"/></g><g><circle cx="392" cy="427" r="1"/></g><g><circle cx="384" cy="427" r="1"/></g><g><circle cx="376" cy="427" r="1"/></g></g></g></svg>