<svg clip-rule="evenodd" fill-rule="evenodd" height="512" stroke-linejoin="round" stroke-miterlimit="2" viewBox="0 0 64 64" width="512" xmlns="http://www.w3.org/2000/svg"><g transform="translate(-342 -399)"><g id="Live-chat-"><g><path d="m367.621 417.547c-1.474-.357-3.023-.547-4.621-.547-9.96 0-18 7.384-18 16.417 0 4.482 2.006 8.758 5.539 11.848l.008.008c.256.218.383.551.337.884-.001.003-.001.005-.001.007-.252 1.922-.774 5.699-.774 5.699-.054.392.128.778.464.987.335.208.762.199 1.089-.023l5.258-3.574c.246-.167.552-.216.837-.135.002.001.004.001.005.002 1.695.474 3.461.714 5.238.714 6.161 0 11.596-2.83 14.835-7.12 1.932.605 4.006.933 6.165.933 1.894 0 3.776-.258 5.581-.767.002 0 .004-.001.006-.001.286-.083.593-.034.839.133l5.612 3.815c.327.222.754.231 1.089.023.336-.209.518-.595.464-.987 0 0-.565-4.081-.83-6.096v-.006c-.047-.335.081-.669.338-.888.003-.002.006-.004.009-.007 3.757-3.264 5.892-7.793 5.892-12.542 0-9.533-8.488-17.324-19-17.324-6.986 0-13.079 3.441-16.379 8.547zm-1.023 1.82c-1.157-.24-2.361-.367-3.598-.367-8.805 0-16 6.432-16 14.417 0 3.915 1.769 7.641 4.853 10.341.77.661 1.151 1.668 1.013 2.666-.123.938-.31 2.317-.469 3.485l3.4-2.311c.735-.499 1.654-.647 2.504-.404 1.521.425 3.105.64 4.699.64 5.264 0 9.944-2.295 12.866-5.852-6.43-2.786-10.866-8.767-10.866-15.658 0-2.471.57-4.825 1.598-6.957zm.402 6.957c0-8.486 7.643-15.324 17-15.324s17 6.838 17 15.324c0 4.18-1.896 8.158-5.202 11.031-.774.661-1.158 1.671-1.019 2.68.135 1.021.348 2.585.524 3.874l-3.754-2.552c-.737-.5-1.659-.647-2.516-.4-1.624.458-3.323.69-5.033.69-9.357 0-17-6.838-17-15.323zm-2 12.676h-9c-.552 0-1 .448-1 1s.448 1 1 1h9c.552 0 1-.448 1-1s-.448-1-1-1zm-2-6h-7c-.552 0-1 .448-1 1s.448 1 1 1h7c.552 0 1-.448 1-1s-.448-1-1-1zm29-9c-1.656 0-3 1.344-3 3s1.344 3 3 3 3-1.344 3-3-1.344-3-3-3zm-8 0c-1.656 0-3 1.344-3 3s1.344 3 3 3 3-1.344 3-3-1.344-3-3-3zm-8 0c-1.656 0-3 1.344-3 3s1.344 3 3 3 3-1.344 3-3-1.344-3-3-3zm-14 3h-6c-.552 0-1 .448-1 1s.448 1 1 1h6c.552 0 1-.448 1-1s-.448-1-1-1zm30-1c.552 0 1 .448 1 1s-.448 1-1 1-1-.448-1-1 .448-1 1-1zm-8 0c.552 0 1 .448 1 1s-.448 1-1 1-1-.448-1-1 .448-1 1-1zm-8 0c.552 0 1 .448 1 1s-.448 1-1 1-1-.448-1-1 .448-1 1-1z"/></g></g></g></svg>