<svg height="512pt" viewBox="0 -48 512 512" width="512pt" xmlns="http://www.w3.org/2000/svg"><path d="m497 0h-482c-8.285156 0-15 6.714844-15 15v385.601562c0 8.28125 6.714844 15 15 15h482c8.285156 0 15-6.71875 15-15v-385.601562c0-8.285156-6.714844-15-15-15zm-402.734375 159.601562c0 8.28125-6.714844 15-15 15-8.28125 0-15-6.71875-15-15v-80.335937c0-8.28125 6.71875-15 15-15 8.285156 0 15 6.71875 15 15zm65.335937 31.066407c-8.28125 0-15-6.722657-15-15 0-8.28125 6.71875-15 15-15 8.277344 0 15 6.71875 15 15 0 8.277343-6.722656 15-15 15zm96.398438 199.230469c-8.277344 0-15-6.71875-15-15 0-8.277344 6.722656-15 15-15s15 6.722656 15 15c0 8.28125-6.722656 15-15 15zm0-55.699219c-8.277344 0-15-6.71875-15-15 0-8.277344 6.722656-15 15-15s15 6.722656 15 15c0 8.28125-6.722656 15-15 15zm0-55.699219c-8.277344 0-15-6.722656-15-15s6.722656-15 15-15 15 6.722656 15 15-6.722656 15-15 15zm0-55.699219c-8.277344 0-15-6.722656-15-15 0-8.28125 6.722656-15 15-15s15 6.71875 15 15c0 8.277344-6.722656 15-15 15zm0-55.699219c-8.277344 0-15-6.722656-15-15 0-8.28125 6.722656-15 15-15s15 6.71875 15 15c0 8.277344-6.722656 15-15 15zm0-55.703124c-8.277344 0-15-6.71875-15-15 0-8.277344 6.722656-15 15-15s15 6.722656 15 15c0 8.28125-6.722656 15-15 15zm0-55.699219c-8.277344 0-15-6.71875-15-15 0-8.277344 6.722656-15 15-15s15 6.722656 15 15c0 8.28125-6.722656 15-15 15zm191.734375 280.632812c0 8.285157-6.71875 15-15 15-8.285156 0-15-6.714843-15-15v-80.332031c0-8.285156 6.714844-15 15-15 8.28125 0 15 6.714844 15 15zm0 0"/></svg>