<svg height="512pt" viewBox="0 -48 512 512" width="512pt" xmlns="http://www.w3.org/2000/svg"><path d="m497 0h-482c-8.285156 0-15 6.714844-15 15v385.601562c0 8.28125 6.714844 15 15 15h482c8.285156 0 15-6.71875 15-15v-385.601562c0-8.285156-6.714844-15-15-15zm-15 385.601562h-452v-355.601562h452zm0 0"/><path d="m271 63.199219c0 8.285156-6.714844 15-15 15s-15-6.714844-15-15c0-8.285157 6.714844-15 15-15s15 6.714843 15 15zm0 0"/><path d="m271 207.800781c0 8.285157-6.714844 15-15 15s-15-6.714843-15-15c0-8.285156 6.714844-15 15-15s15 6.714844 15 15zm0 0"/><path d="m174.601562 175.667969c0 8.285156-6.71875 15-15 15-8.285156 0-15-6.714844-15-15 0-8.285157 6.714844-15 15-15 8.28125 0 15 6.714843 15 15zm0 0"/><path d="m271 111.398438c0 8.285156-6.714844 15-15 15s-15-6.714844-15-15c0-8.28125 6.714844-15 15-15s15 6.71875 15 15zm0 0"/><path d="m271 256c0 8.285156-6.714844 15-15 15s-15-6.714844-15-15 6.714844-15 15-15 15 6.714844 15 15zm0 0"/><path d="m271 159.601562c0 8.28125-6.714844 15-15 15s-15-6.71875-15-15c0-8.285156 6.714844-15 15-15s15 6.714844 15 15zm0 0"/><path d="m271 304.199219c0 8.285156-6.714844 15-15 15s-15-6.714844-15-15c0-8.285157 6.714844-15 15-15s15 6.714843 15 15zm0 0"/><path d="m271 352.398438c0 8.285156-6.714844 15-15 15s-15-6.714844-15-15c0-8.28125 6.714844-15 15-15s15 6.71875 15 15zm0 0"/><path d="m79.265625 174.601562c8.285156 0 15-6.71875 15-15v-80.335937c0-8.28125-6.714844-15-15-15-8.28125 0-15 6.71875-15 15v80.335937c0 8.28125 6.714844 15 15 15zm0 0"/><path d="m432.734375 351.332031c8.28125 0 15-6.714843 15-15v-80.332031c0-8.285156-6.71875-15-15-15-8.285156 0-15 6.714844-15 15v80.332031c0 8.285157 6.714844 15 15 15zm0 0"/></svg>